Patient4_TMGait_0pt4_03_right_01_GRF.mot
version=1
nRows=59
nColumns=19
inDegrees=no
endheader
time	F1x	F1y	F1z	M1x	M1y	M1z	F2x	F2y	F2z	M2x	M2y	M2z	EC1x	EC1y	EC1z	EC2x	EC2y	EC2z
0.2	-18.3383	728.606	54.6334	-265.7976	-56.6428	738.7905	25.268	7.486	-4.8579	2.1282	-0.90897	1.4674	-0.0592	0.0182	-0.0073	-0.0462	0.0165	0.9585
0.213	-10.3053	725.8801	56.7434	-263.9599	-56.7096	738.1222	16.8915	5.6535	-3.3326	1.6433	-0.45318	1.6597	-0.0592	0.0182	-0.0073	-0.0462	0.0165	0.9585
0.226	-3.3037	723.5525	58.5363	-262.2809	-56.6405	736.9658	9.7978	4.0677	-2.051	1.2348	-0.064641	1.7943	-0.0592	0.0182	-0.0073	-0.0462	0.0165	0.9585
0.239	2.3071	722.2887	59.9641	-261.0526	-56.4746	735.8928	4.3738	2.8522	-1.0831	0.93273	0.24029	1.8969	-0.0592	0.0182	-0.0073	-0.0462	0.0165	0.9585
0.252	6.5723	722.66	61.0225	-260.5108	-56.2063	735.538	0.60228	2.0129	-0.43173	0.73586	0.4712	1.9688	-0.0592	0.0182	-0.0073	-0.0462	0.0165	0.9585
0.265	9.7153	724.9994	61.7876	-260.7872	-55.8658	736.3782	-1.7557	1.5051	-0.049333	0.6273	0.63766	2.0203	-0.0592	0.0182	-0.0073	-0.0462	0.0165	0.9585
0.278	12.0388	729.3734	62.3038	-261.9055	-55.4375	738.6242	-3.0499	1.2382	0.12348	0.57679	0.76552	2.0436	-0.0592	0.0182	-0.0073	-0.0462	0.0165	0.9585
0.291	13.8519	735.6244	62.6425	-263.801	-54.9238	742.2472	-3.6111	1.0729	0.1544	0.54029	0.86954	1.9643	-0.0592	0.0182	-0.0073	-0.0462	0.0165	0.9585
0.304	15.4481	743.4252	62.8359	-266.3436	-54.2897	747.0185	-3.7484	0.89066	0.093983	0.47622	0.97438	1.7361	-0.0592	0.0182	-0.0073	-0.0462	0.0165	0.9585
0.317	17.0354	752.3044	62.9279	-269.3455	-53.5289	752.5553	-3.6664	0.54727	-0.011851	0.33647	1.0826	1.2498	-0.0592	0.0182	-0.0073	-0.0462	0.0165	0.9585
0.33	18.7456	761.6543	62.9391	-272.569	-52.6318	758.3304	-3.5332	-0.078272	-0.13506	0.079576	1.2035	0.42504	-0.0592	0.0182	-0.0073	-0.0462	0.0165	0.9585
0.343	20.6443	770.7882	62.8898	-275.7459	-51.6093	763.7394	-3.4028	-1.0902	-0.25671	-0.32834	1.3274	-0.83533	-0.0592	0.0182	-0.0073	-0.0462	0.0165	0.9585
0.356	22.7202	779.0171	62.7768	-278.6038	-50.4683	768.1892	-3.2811	-2.5455	-0.3643	-0.90679	1.4315	-2.5855	-0.0592	0.0182	-0.0073	-0.0462	0.0165	0.9585
0.369	24.9424	785.6313	62.603	-280.8608	-49.2248	771.06	-3.1189	-4.4296	-0.43679	-1.6468	1.4653	-4.8041	-0.0592	0.0182	-0.0073	-0.0462	0.0165	0.9585
0.382	27.2374	789.8662	62.3802	-282.2128	-47.9121	771.6908	-2.7766	-6.584	-0.45616	-2.487	1.3577	-7.314	-0.0592	0.0182	-0.0073	-0.0462	0.0165	0.9585
0.395	29.5236	790.9695	62.1441	-282.3586	-46.5967	769.4394	-2.0903	-8.6456	-0.38617	-3.2892	1.011	-9.6923	-0.0592	0.0182	-0.0073	-0.0462	0.0165	0.9585
0.408	31.6874	788.3958	61.9411	-281.0727	-45.3679	763.8698	-0.84925	-9.9951	-0.18265	-3.8137	0.29963	-11.2363	-0.0592	0.0182	-0.0073	-0.0462	0.0165	0.9585
0.421	33.6396	781.9682	61.8212	-278.2706	-44.3143	754.8857	1.1498	-9.6178	0.21125	-3.6718	-0.91281	-10.7825	-0.0592	0.0182	-0.0073	-0.0462	0.0165	0.9585
0.434	35.3217	771.9023	61.8114	-274.0247	-43.4934	742.7463	4.09	-6.117	0.84761	-2.3224	-2.7475	-6.7352	-0.0592	0.0182	-0.0073	-0.0462	0.0165	0.9585
0.447	36.7263	758.6913	61.8826	-268.5245	-42.8992	727.9547	8.0176	2.282	1.7749	0.92143	-5.269	2.9476	-0.0592	0.0182	-0.0073	-0.0462	0.0165	0.9585
0.46	37.9006	742.8644	61.9287	-261.991	-42.4299	711.0055	12.7777	17.6082	2.9985	6.8424	-8.411	20.6018	-0.0592	0.0182	-0.0073	-0.0462	0.0165	0.9585
0.473	38.8943	724.7789	61.7861	-254.5935	-41.9205	692.2342	17.8503	41.8011	4.467	16.1867	-11.8986	48.467	-0.0592	0.0182	-0.0073	-0.0462	0.0165	0.9585
0.486	39.7127	704.3822	61.2451	-246.3611	-41.1703	671.6047	22.1562	76.1352	6.0133	29.4406	-15.1172	88.024	-0.0592	0.0182	-0.0073	-0.0462	0.0165	0.9585
0.499	40.2604	681.1652	60.0736	-237.1653	-39.9893	648.6686	23.948	120.3526	7.3002	46.4977	-17.0119	138.9774	-0.0592	0.0182	-0.0073	-0.0462	0.0165	0.9585
0.512	40.3902	654.3554	58.035	-226.7946	-38.1996	622.7076	21.1867	171.9523	7.7411	66.3689	-16.1649	198.4927	-0.0592	0.0182	-0.0073	-0.0462	0.0165	0.9585
0.525	39.9765	623.3093	54.9657	-215.0875	-35.6833	593.0972	13.5734	226.5817	6.5277	87.3098	-11.5708	261.6373	-0.0592	0.0182	-0.0073	-0.0462	0.0165	0.9585
0.538	38.989	587.8273	50.8402	-202.0312	-32.4193	559.5711	3.3226	279.1345	3.2221	107.3127	-3.6543	322.4084	-0.0592	0.0182	-0.0073	-0.0462	0.0165	0.9585
0.551	37.4923	548.1651	45.8755	-187.7472	-28.5727	522.2408	-7.0629	326.0061	-1.8198	124.996	6.2106	376.3727	-0.0592	0.0182	-0.0073	-0.0462	0.0165	0.9585
0.564	35.5525	504.8333	40.4288	-172.4172	-24.4331	481.4815	-16.126	366.4881	-7.9792	140.1166	16.7473	422.5385	-0.0592	0.0182	-0.0073	-0.0462	0.0165	0.9585
0.577	33.1946	458.4335	34.9274	-156.2265	-20.3696	437.7908	-23.2521	401.8175	-14.2753	153.2106	26.6428	462.3065	-0.0592	0.0182	-0.0073	-0.0462	0.0165	0.9585
0.59	30.3863	409.6836	29.683	-139.3842	-16.6674	391.816	-28.4744	433.8709	-20.0953	165.0582	35.211	497.9053	-0.0592	0.0182	-0.0073	-0.0462	0.0165	0.9585
0.603	27.064	359.4672	24.8544	-122.1523	-13.4868	344.3771	-32.0001	464.6651	-24.9664	176.4792	42.0361	531.6611	-0.0592	0.0182	-0.0073	-0.0462	0.0165	0.9585
0.616	23.16	308.8421	20.4831	-104.8555	-10.8892	296.4697	-34.0549	496.1339	-29.0062	188.2165	47.3398	565.7901	-0.0592	0.0182	-0.0073	-0.0462	0.0165	0.9585
0.629	18.6287	259.0744	16.5911	-87.8921	-8.9123	249.2934	-34.927	529.8036	-32.5011	200.8271	51.5791	602.0754	-0.0592	0.0182	-0.0073	-0.0462	0.0165	0.9585
0.642	13.5482	211.5881	13.2134	-71.7228	-7.5711	204.1949	-35.0567	566.215	-35.9616	214.4741	55.4813	641.25	-0.0592	0.0182	-0.0073	-0.0462	0.0165	0.9585
0.655	8.147	167.8197	10.3897	-56.8217	-6.8316	162.5448	-35.0022	604.8318	-39.7531	228.9027	59.6593	682.845	-0.0592	0.0182	-0.0073	-0.0462	0.0165	0.9585
0.668	2.8502	128.9686	8.1321	-43.5926	-6.569	125.4718	-35.3013	644.3534	-44.1021	243.578	64.5482	725.5149	-0.0592	0.0182	-0.0073	-0.0462	0.0165	0.9585
0.681	-1.8421	95.7292	6.3859	-32.2757	-6.5651	93.6361	-36.2629	683.1706	-48.8858	257.8748	70.1237	767.5216	-0.0592	0.0182	-0.0073	-0.0462	0.0165	0.9585
0.694	-5.484	68.1953	5.0286	-22.9126	-6.5581	67.1335	-37.8755	719.6207	-53.7801	271.1717	76.022	806.998	-0.0592	0.0182	-0.0073	-0.0462	0.0165	0.9585
0.707	-7.7808	46.0565	3.9143	-15.4024	-6.3145	45.7028	-39.9534	752.0405	-58.4062	282.8584	81.7522	842.0541	-0.0592	0.0182	-0.0073	-0.0462	0.0165	0.9585
0.72	-8.6075	28.8231	2.9401	-9.5762	-5.6977	28.9204	-42.2418	778.8299	-62.4667	292.355	86.8807	870.8604	-0.0592	0.0182	-0.0073	-0.0462	0.0165	0.9585
0.733	-8.0592	15.9488	2.0536	-5.2435	-4.6927	16.2972	-44.4957	798.696	-65.7657	299.1904	91.0967	891.9515	-0.0592	0.0182	-0.0073	-0.0462	0.0165	0.9585
0.746	-6.5935	6.9438	1.2802	-2.2294	-3.4769	7.3936	-46.4964	810.7907	-68.2042	303.0623	94.2164	904.3568	-0.0592	0.0182	-0.0073	-0.0462	0.0165	0.9585
0.759	-4.8262	1.2747	0.67244	-0.3433	-2.307	1.727	-48.0791	814.8896	-69.7672	303.9059	96.1698	907.7934	-0.0592	0.0182	-0.0073	-0.0462	0.0165	0.9585
0.772	-3.145	-1.8075	0.24785	0.67281	-1.3345	-1.408	-49.0845	811.5574	-70.4774	301.9593	96.9368	902.837	-0.0592	0.0182	-0.0073	-0.0462	0.0165	0.9585
0.785	-1.754	-3.0635	-0.028641	1.0783	-0.59922	-2.7371	-49.3928	802.1762	-70.4104	297.7691	96.5727	890.9663	-0.0592	0.0182	-0.0073	-0.0462	0.0165	0.9585
0.798	-0.71275	-3.1563	-0.17384	1.0967	-0.10766	-2.906	-48.9724	788.6948	-69.6614	292.0962	95.1915	874.2986	-0.0592	0.0182	-0.0073	-0.0462	0.0165	0.9585
0.811	0.00014831	-2.6132	-0.22849	0.90236	0.18357	-2.4277	-47.8709	773.3216	-68.3589	285.7949	92.9723	855.2488	-0.0592	0.0182	-0.0073	-0.0462	0.0165	0.9585
0.824	0.43087	-1.8058	-0.21693	0.61952	0.31518	-1.6598	-46.2182	758.2559	-66.6398	279.7097	90.1296	836.2348	-0.0592	0.0182	-0.0073	-0.0462	0.0165	0.9585
0.837	0.65516	-0.95697	-0.17092	0.32301	0.34327	-0.83101	-44.199	745.4366	-64.6541	274.5787	86.9065	819.3884	-0.0592	0.0182	-0.0073	-0.0462	0.0165	0.9585
0.85	0.72862	-0.19274	-0.10759	0.055762	0.30652	-0.069375	-41.9843	736.3479	-62.5566	270.9567	83.5347	806.3299	-0.0592	0.0182	-0.0073	-0.0462	0.0165	0.9585
0.863	0.71915	0.42846	-0.044651	-0.16339	0.24517	0.55118	-39.691	731.8962	-60.5121	269.1673	80.2284	798.028	-0.0592	0.0182	-0.0073	-0.0462	0.0165	0.9585
0.876	0.65964	0.91107	0.015217	-0.33435	0.17246	1.0347	-37.4039	732.3223	-58.6536	269.2768	77.1509	794.7295	-0.0592	0.0182	-0.0073	-0.0462	0.0165	0.9585
0.889	0.58519	1.2567	0.066974	-0.45782	0.10167	1.3709	-35.1703	737.1885	-57.0865	271.0936	74.4219	795.9635	-0.0592	0.0182	-0.0073	-0.0462	0.0165	0.9585
0.902	0.50107	1.4764	0.11227	-0.53672	0.033162	1.5769	-32.9949	745.4798	-55.8542	274.209	72.0816	800.6539	-0.0592	0.0182	-0.0073	-0.0462	0.0165	0.9585
0.915	0.41099	1.5837	0.15412	-0.57351	-0.03685	1.6645	-30.877	755.7554	-54.9579	278.0596	70.1199	807.2891	-0.0592	0.0182	-0.0073	-0.0462	0.0165	0.9585
0.928	0.31659	1.558	0.1983	-0.56223	-0.11528	1.6122	-28.8	766.383	-54.3497	282.0172	68.4696	814.1772	-0.0592	0.0182	-0.0073	-0.0462	0.0165	0.9585
0.941	0.20172	1.362	0.25019	-0.49133	-0.21272	1.3788	-26.7231	775.769	-53.9775	285.4741	67.0535	819.6859	-0.0592	0.0182	-0.0073	-0.0462	0.0165	0.9585
0.954	0.066566	0.93904	0.31405	-0.34212	-0.33557	0.8897	-24.6162	782.5635	-53.7736	287.9234	65.7867	822.4472	-0.0592	0.0182	-0.0073	-0.0462	0.0165	0.9585
